<?xml version="1.0" encoding="utf-8"?>
<!-- Generator: Adobe Illustrator 25.0.0, SVG Export Plug-In . SVG Version: 6.00 Build 0)  -->
<svg version="1.1" id="Layer_1" xmlns="http://www.w3.org/2000/svg" xmlns:xlink="http://www.w3.org/1999/xlink" x="0px" y="0px"
	 viewBox="0 0 1245.14 220.18" style="enable-background:new 0 0 1245.14 220.18;" xml:space="preserve">
<style type="text/css">
	.st0{fill:#FFFFFF;}
</style>
<g>
	<path d="M204.04,116.73c0,31.05,0,62.1,0,93.16c0,4.79-0.44,5.23-5.15,5.24c-13.91,0.04-27.83,0.07-41.74,0.1
		c-0.96,0-1.93,0.02-2.87-0.12c-2.79-0.41-4.53-2.15-5.69-4.61c-1.8-3.82-3.55-7.68-5.45-11.45c-7.12-14.1-15.65-27.26-26.07-39.18
		c-5.07-5.8-10.84-10.85-17.05-15.39c-8.9-6.5-17.91-12.86-26.85-19.32c-3.82-2.76-7.54-5.66-11.33-8.45
		c-2.47-1.82-4.55-3.99-6.43-6.4c-1.52-1.95-3.13-3.83-4.75-5.7c-0.9-1.05-2.05-1.7-3.44-2.04c-8.85-2.13-17.67-4.37-26.53-6.46
		c-6.18-1.46-11.58-0.13-15.73,4.96c-0.69,0.85-1.47,1.54-2.64,1.25c-1.31-0.33-1.56-1.44-1.75-2.59
		c-1.05-6.48-0.63-12.88,1.03-19.21c2.38-9.07,6.59-17.1,13.6-23.49c4.21-3.84,9.08-6.47,14.66-7.77c2.96-0.69,3.74-0.27,4.37,2.71
		c3.2,15.3,11.76,27.02,24.21,36.13c13.18,9.64,27.66,16.83,42.89,22.62c11.88,4.51,24.14,7.82,36.27,11.55
		c1.98,0.61,3.97,1.26,5.99,1.67c1.22,0.25,2.55,0.22,3.78,0.04c1.24-0.18,2.16-1.01,2.48-2.32c0.33-1.36-0.31-2.42-1.36-3.07
		c-1.34-0.83-2.78-1.59-4.28-2.08c-10.4-3.4-20.84-6.63-31.22-10.08c-10.23-3.4-20.49-6.73-30.14-11.63
		c-10.18-5.17-19.52-11.57-27.91-19.28c-8.37-7.68-12.96-17.34-13.76-28.63c-0.4-5.71,1.78-10.67,6.08-14.51
		c1.77-1.58,3.78-2.96,5.84-4.15c12.88-7.38,26.76-11.96,41.32-14.71c14.35-2.7,28.8-4.06,43.39-3.79
		c9.68,0.18,19.31,1.13,28.88,2.56c10.9,1.62,21.79,3.37,32.68,5.06c0.32,0.05,0.64,0.06,0.95,0.12c2.78,0.57,3.47,1.32,3.62,4.19
		c0.1,1.99,0.09,3.99,0.09,5.98C204.04,57.34,204.04,87.03,204.04,116.73C204.04,116.73,204.04,116.73,204.04,116.73z M112.52,41.51
		c0.07-0.2,0.14-0.39,0.2-0.59c0.94,0,1.88,0.01,2.82,0c9.54-0.09,18.99,0.88,28.43,2.1c1.26,0.16,2.55,0.31,3.82,0.27
		c1.51-0.05,2.53-0.97,2.98-2.38c0.44-1.38,0.29-2.8-0.89-3.73c-0.77-0.61-1.81-1.06-2.78-1.2c-4.19-0.58-8.41-1.03-12.61-1.5
		c-11.17-1.24-22.34-1.4-33.49,0.15c-3.48,0.48-6.95,0.96-10.23,2.39c-7.93,3.44-14.21,11.7-12.99,21.33
		c1.76,13.85,15.54,20.9,26.84,17.2c8.15-2.67,14.52-11.1,14.32-19.24c-0.14-5.43-1.76-9.76-5.32-13.6
		C113.25,42.33,112.89,41.92,112.52,41.51z M155.65,191.94c0.21,0.33,0.5,1.12,1.05,1.59c0.71,0.6,1.6,1.04,2.48,1.39
		c4.29,1.72,8.6,3.4,12.91,5.06c1.19,0.46,2.4,0.87,3.63,1.18c1.84,0.46,3.6-0.63,4.44-2.63c0.68-1.62,0.07-3.08-1.76-4.15
		c-0.34-0.2-0.7-0.38-1.07-0.52c-5.35-2.08-10.69-4.2-16.07-6.2C158.29,186.55,155.59,188.47,155.65,191.94z M143.23,164.29
		c0.01,0.6,0.43,1.53,1.35,2.14c0.59,0.39,1.25,0.7,1.91,0.97c4.93,2.02,9.86,4.08,14.83,6c1.22,0.47,2.83,1,3.87,0.58
		c1.15-0.47,2.25-1.89,2.64-3.13c0.4-1.27-0.57-2.58-1.75-3.4c-0.58-0.4-1.26-0.68-1.92-0.95c-4.95-1.99-9.9-3.97-14.85-5.94
		c-0.44-0.18-0.89-0.35-1.35-0.46C145.4,159.55,143.31,161.19,143.23,164.29z M191.31,163.04c1.05-0.91,1.94-1.59,2.72-2.38
		c1.37-1.38,1.55-2.55,0.27-3.99c-0.86-0.96-2.07-1.79-3.28-2.24c-4.57-1.68-9.2-3.19-13.82-4.72c-0.9-0.3-1.86-0.55-2.8-0.57
		c-3.15-0.04-4.75,2.48-3.23,5.14c0.39,0.68,1.23,1.25,1.98,1.56C179.15,158.27,185.17,160.62,191.31,163.04z M148.85,146.23
		c3.09,0.08,4.98-2.15,4.31-4.51c-0.39-1.37-1.48-2.09-2.68-2.56c-5.65-2.2-11.32-4.35-17-6.46c-1.64-0.61-3.66,0.36-4.55,1.99
		c-0.67,1.23-0.15,3.2,1.21,4.27c0.43,0.34,0.95,0.59,1.46,0.79c5.21,2.02,10.42,4.02,15.64,6.01
		C147.89,146.03,148.6,146.16,148.85,146.23z M184.76,133.73c1.55,0.05,3.9-1.47,4.4-2.8c0.56-1.5-0.27-2.68-1.23-3.62
		c-0.58-0.57-1.5-0.88-2.33-1.09c-5.56-1.41-11.13-2.78-16.71-4.14c-1.32-0.32-3.8,0.93-4.4,2.16c-0.54,1.09,0.16,3.43,1.39,4.27
		c0.58,0.39,1.29,0.63,1.97,0.82c3.76,1.06,7.52,2.1,11.29,3.1C181.07,132.94,183.02,133.33,184.76,133.73z"/>
	<path d="M247.89,19.7c14.33,0,28.53,0,42.97,0c0,25,0,49.95,0,74.83c1.91,0.54,80.27,0.69,83.58,0.18c0-24.97,0-49.98,0-75.14
		c14.63,0,28.98,0,43.48,0c0,65.29,0,130.45,0,195.77c-14.35,0-28.63,0-43.26,0c-0.07-5.53-0.02-11-0.03-16.47
		c-0.01-5.51,0-11.02,0-16.52c0-5.59,0-11.18,0-16.76c0-5.51,0-11.02,0-16.52c0-5.5,0-11,0-16.84c-1.78-0.1-3.41-0.27-5.05-0.27
		c-18.39-0.02-36.78-0.01-55.18-0.01c-6.08,0-12.15-0.04-18.23-0.05c-0.64,0-1.28-0.03-1.92,0.02c-2.43,0.17-3.26,0.98-3.27,3.47
		c-0.03,4.71,0.04,9.42,0.04,14.13c0.01,21.23,0,42.47,0,63.7c0,0.62-0.05,1.25-0.09,2.03c-14.39,0-28.65,0-43.04,0
		C247.89,150.02,247.89,84.94,247.89,19.7z"/>
	<path d="M1100.67,63.91c-20.48,22.88-40.59,45.35-60.81,67.95c21.38,27.29,42.65,54.42,64.15,81.87c-3.48,0.52-6.6,1.02-9.73,1.45
		c-8.87,1.22-17.74,2.4-26.6,3.6c-1.74,0.23-3.5,0.37-5.23,0.69c-2.76,0.52-4.75-0.47-6.42-2.67c-3.38-4.45-6.89-8.81-10.33-13.21
		c-13.05-16.66-26.09-33.33-39.14-49.99c-0.73-0.93-1.52-1.81-2.24-2.67c-0.25,0.1-0.33,0.12-0.39,0.16
		c-0.06,0.04-0.12,0.11-0.13,0.17c-0.03,0.32-0.07,0.63-0.07,0.95c-0.01,20.68-0.01,41.35-0.02,62.03c0,0.16-0.03,0.32-0.07,0.47
		c-0.02,0.07-0.07,0.13-0.18,0.35c-13.7,0-27.49,0-41.42,0c0-71.58,0-143.07,0-214.58c1.6-0.52,37.35-0.72,41.63-0.19
		c0,0.95,0,1.96,0,2.97c0,37.2,0,74.4,0.01,111.6c0,0.99,0.09,1.98,0.15,3.11c0.53-0.16,0.83-0.16,0.95-0.3
		c4.39-5.17,8.72-10.39,13.14-15.54c10.03-11.71,20.14-23.35,30.12-35.09c2.03-2.38,4.26-3.5,7.44-3.47
		c13.11,0.12,26.23,0.04,39.34,0.06C1096.58,63.65,1098.32,63.8,1100.67,63.91z"/>
	<path d="M842.96,118.04c0.71-0.78,1.35-1.46,1.95-2.16c13.88-16.09,27.75-32.18,41.62-48.27c0.63-0.72,1.25-1.46,1.96-2.1
		c1.22-1.1,2.62-1.69,4.34-1.69c14.55,0.02,29.11-0.02,43.66-0.02c0.77,0,1.54,0.1,2.85,0.18c-20.4,22.79-40.49,45.25-60.73,67.87
		c21.34,27.24,42.59,54.37,64.02,81.72c-0.79,0.22-1.35,0.45-1.93,0.53c-9.82,1.34-19.63,2.66-29.45,4
		c-3.56,0.48-7.14,0.9-10.67,1.53c-2.46,0.44-4.14-0.48-5.58-2.35c-4.09-5.32-8.22-10.61-12.34-15.89
		c-12.48-15.99-24.97-31.97-37.47-47.95c-0.63-0.81-1.3-1.58-2.06-2.5c-0.82,0.97-0.51,1.95-0.51,2.82
		c-0.02,17.24-0.02,34.49-0.02,51.73c0,2.39,0.01,4.79-0.01,7.18c0,0.78-0.07,1.56-0.11,2.47c-13.94,0-27.74,0-41.54,0
		c-0.46-1.67-0.62-211.37-0.15-214.81c13.7,0,27.42,0,41.47,0c0.04,0.77,0.12,1.6,0.12,2.44c0.01,10.78,0.01,21.55,0.01,32.33
		c0,26.66,0,53.33,0.01,79.99C842.4,115.99,842.1,116.98,842.96,118.04z"/>
	<path d="M1205.69,215.34c0-8.02,0-15.73,0-23.45c-0.13-0.06-0.26-0.12-0.4-0.18c-0.55,0.82-1.11,1.62-1.63,2.45
		c-3.81,6.05-8.19,11.61-13.83,16.09c-9.02,7.18-19.39,10.31-30.81,9.89c-14.88-0.55-26.32-7.54-34.89-19.43
		c-6.27-8.69-9.99-18.5-11.99-28.96c-2.2-11.49-2.92-23.11-2.3-34.78c0.63-12.02,2.92-23.74,7.68-34.87
		c8.34-19.52,22.91-32.07,43.14-38.22c9.54-2.9,19.34-4.19,29.3-4.35c15.27-0.24,30.28,1.91,45.18,5c2.5,0.52,5.02,0.98,7.51,1.55
		c2.14,0.49,2.44,0.92,2.49,3.12c0.01,0.48,0,0.96,0,1.44c0,47.02-0.01,94.03-0.02,141.05c0,1.17-0.1,2.34-0.16,3.66
		C1231.82,215.34,1218.91,215.34,1205.69,215.34z M1204.81,122.95c-0.02,0-0.04,0-0.06,0c0-2.08-0.01-4.15,0-6.23
		c0.02-5.03,0.05-10.06,0.05-15.09c0-3-0.54-3.53-3.62-3.79c-0.8-0.07-1.59-0.2-2.38-0.27c-5.25-0.46-10.5-1.28-15.75-1.28
		c-12.23-0.01-21.19,5.64-26.83,16.49c-1.89,3.63-3.32,7.44-4.2,11.43c-2.77,12.49-2.54,25.03-0.34,37.56
		c0.85,4.82,2.54,9.39,5.12,13.59c5.07,8.27,13.25,10.56,21.91,6.15c3.69-1.88,6.71-4.59,9.49-7.6c6.07-6.57,10.63-14.15,14.7-22.06
		c1.37-2.66,1.95-5.54,1.94-8.55C1204.79,136.52,1204.81,129.74,1204.81,122.95z"/>
	<path d="M586.21,215.39c-13.4,0-26.25,0-39.25,0c-0.45-2.67-0.15-5.28-0.21-7.87c-0.05-2.55-0.01-5.11-0.01-7.66
		c0-2.63,0-5.26,0-8.53c-0.72,0.95-1.11,1.46-1.49,1.97c-2.75,3.72-5.22,7.68-8.28,11.12c-10.14,11.42-23.03,16.55-38.26,15.64
		c-12.97-0.78-23.32-6.7-31.44-16.63c-7.01-8.58-11.2-18.54-13.55-29.27c-2.73-12.47-3.46-25.12-2.78-37.83
		c0.59-10.96,2.68-21.67,6.7-31.94c8.08-20.62,22.84-34.02,44-40.48c9.46-2.89,19.18-4.18,29.06-4.36
		c15.35-0.28,30.43,1.88,45.41,4.98c2.35,0.49,4.7,0.92,7.05,1.41c2.68,0.57,3.02,1.01,3.05,3.68c0,0.4,0,0.8,0,1.2
		c0,46.77,0,93.55,0,140.32C586.21,212.47,586.21,213.81,586.21,215.39z M545.89,123.16c-0.02,0-0.03,0-0.05,0
		c0-7.18,0.02-14.36-0.01-21.54c-0.01-2.77-0.72-3.46-3.5-3.78c-3.25-0.38-6.5-0.85-9.75-1.21c-5.26-0.58-10.53-0.74-15.73,0.49
		c-9.84,2.31-16.48,8.41-20.52,17.48c-3.16,7.08-4.6,14.58-5.12,22.26c-0.5,7.27-0.04,14.51,0.97,21.72
		c0.89,6.38,2.65,12.48,6.35,17.88c4.92,7.17,12.27,9.17,20.15,5.51c3.75-1.74,6.91-4.28,9.77-7.22c6.7-6.9,11.51-15.07,15.81-23.57
		c1.24-2.44,1.66-5.14,1.65-7.9C545.87,136.56,545.89,129.86,545.89,123.16z"/>
	<path d="M761.47,215.26c-13.87,0-27.59,0-41.66,0c0-5.8,0-11.48,0-17.17c-0.17-0.06-0.34-0.12-0.51-0.17
		c-2.81,2.57-5.7,5.07-8.42,7.74c-6.21,6.07-13.56,10.07-21.94,12.19c-12.01,3.03-23.92,2.62-35.68-1.26
		c-13.25-4.37-21.95-13.55-27.37-26.1c-2.69-6.22-4.02-12.77-4.3-19.52c-0.22-5.26-0.33-10.53-0.33-15.79
		c-0.03-29.38-0.01-58.76-0.01-88.13c0-0.87,0-1.75,0-2.58c1.75-0.59,38.81-0.75,42.01-0.15c0,0.94,0,1.95,0,2.96
		c0,29.7,0,59.39,0,89.09c0,3.75,0.05,7.5,1.16,11.14c2.3,7.54,6.82,12.93,14.7,14.98c4.61,1.2,9.2,0.67,13.74-0.56
		c7.98-2.16,14.48-6.63,19.79-12.85c1.91-2.24,3.53-4.73,5.33-7.07c1.33-1.73,1.76-3.63,1.75-5.8c-0.06-14.45-0.05-28.9-0.03-43.35
		c0.03-15.48,0.09-30.97,0.14-46.45c0-0.71,0-1.42,0-2.08c1.87-0.53,38.92-0.63,41.64-0.14
		C761.47,114.48,761.47,164.81,761.47,215.26z"/>
	<path class="st0" d="M85.51,55.94c-0.05,7.7,5,12.84,12.65,12.85c7.8,0.01,13.22-5.15,13.26-12.64c0.05-7.8-5.21-13.1-13.01-13.11
		C90.63,43.03,85.57,48.09,85.51,55.94z"/>
	<path d="M85.51,55.94c0.06-7.85,5.12-12.91,12.9-12.9c7.8,0.01,13.06,5.31,13.01,13.11c-0.04,7.49-5.46,12.66-13.26,12.64
		C90.52,68.78,85.46,63.64,85.51,55.94z"/>
</g>
</svg>
