<?xml version="1.0" encoding="utf-8"?>
<!-- Generator: Adobe Illustrator 25.0.0, SVG Export Plug-In . SVG Version: 6.00 Build 0)  -->
<svg version="1.1" id="Layer_1" xmlns="http://www.w3.org/2000/svg" xmlns:xlink="http://www.w3.org/1999/xlink" x="0px" y="0px"
	 viewBox="0 0 220.66 220.6" style="enable-background:new 0 0 220.66 220.6;" xml:space="preserve">
<style type="text/css">
	.st0{fill:#FFFFFF;}
</style>
<g>
	<path d="M110.21,220.6C49.21,220.57-0.08,171.27,0,110.16C0.08,49.13,49.43-0.04,110.51,0c60.14,0.04,112.14,49.25,110.09,114.24
		C218.79,171.5,172.06,220.48,110.21,220.6z M149.86,208.62c-0.23-0.59-0.44-1.19-0.7-1.76c-2.28-4.92-4.49-9.88-6.88-14.75
		c-4.33-8.82-9.35-17.23-15.04-25.25c-6.96-9.83-14.95-18.66-24.76-25.73c-8.66-6.24-17.38-12.41-25.99-18.74
		c-4.1-3.02-8.13-6.17-11.94-9.55c-2.06-1.83-3.55-4.28-5.34-6.42c-1.07-1.28-2.15-2.56-3.9-2.99c-7.66-1.87-15.32-3.78-22.99-5.64
		c-2.4-0.58-4.85-0.99-7.33-0.6c-3.28,0.52-5.98,2.07-8.02,4.73c-0.66,0.87-1.5,1.5-2.67,1.17c-1.09-0.31-1.29-1.26-1.48-2.24
		c-0.92-4.67-0.7-9.34,0.14-13.98c1.51-8.31,4.78-15.82,10.44-22.18c4.51-5.06,9.97-8.52,16.69-9.82c1.84-0.36,2.57,0.1,3.05,1.88
		c0.49,1.84,0.89,3.7,1.43,5.53c3.18,10.59,9.45,19.08,18.01,25.9c7.57,6.04,15.9,10.92,24.58,15.19c11,5.41,22.47,9.6,34.21,13.06
		c6.29,1.85,12.53,3.84,18.83,5.65c1.53,0.44,3.19,0.51,4.79,0.53c1.2,0.02,2.11-0.74,2.49-1.91c0.36-1.12-0.07-2.25-1.25-2.95
		c-1.22-0.72-2.51-1.4-3.86-1.84c-12.53-4.14-25.09-8.19-37.62-12.33c-11.92-3.93-23.13-9.31-33.23-16.85
		c-5.11-3.82-10.2-7.67-14.16-12.78c-4.58-5.92-7.2-12.66-7.9-20.05c-0.63-6.59,2.03-11.93,7.42-15.76
		c5.46-3.88,11.58-6.54,17.76-9.04c8.02-3.24,16.38-5.28,24.88-6.74c4.41-0.76,8.85-1.36,13.29-1.95c2.48-0.33,4.98-0.54,7.48-0.67
		c4.49-0.24,8.99-0.53,13.49-0.53c4.26,0,8.52,0.29,12.77,0.57c3.29,0.21,6.58,0.51,9.85,0.91c4.38,0.54,8.75,1.21,13.26,1.84
		C136.95-0.6,81.23-6.1,39.03,31.76C1.15,65.74-8.53,125,23.22,170.81C53.68,214.73,108.33,225.87,149.86,208.62z M113.54,47.75
		c0.04-0.13,0.08-0.26,0.11-0.39c4.78,0.13,9.58,0.09,14.34,0.45c5.6,0.43,11.17,1.22,16.76,1.82c1.37,0.15,2.53-0.3,3.27-1.54
		c1.3-2.19-0.14-4.58-2.95-4.92c-2.17-0.26-4.34-0.61-6.52-0.81c-5.28-0.48-10.56-1.04-15.86-1.3c-6.55-0.32-13.08,0.1-19.58,1.01
		c-3.7,0.52-7.39,1.07-10.72,3c-7.77,4.5-11.78,12.72-9.02,21.6c2.86,9.2,12.09,14.58,21.58,12.59c6.16-1.3,10.65-5.06,13.28-10.85
		c1.03-2.27,1.11-4.69,1.31-7.16c0.31-3.81-0.84-6.97-2.95-9.91C115.69,50.08,114.57,48.95,113.54,47.75z M156.43,179.81
		c-1.91,0.02-2.93,1.55-3.39,3.06c-0.44,1.45,0.07,2.45,1.72,3.23c1.65,0.78,3.35,1.49,5.06,2.13c3.72,1.41,7.43,2.84,11.19,4.09
		c1.87,0.62,3.98-1.15,4.07-3.15c0.07-1.58-0.63-2.48-2.73-3.3c-3.92-1.54-7.86-3.05-11.8-4.56
		C159.18,180.79,157.8,180.31,156.43,179.81z M145.68,155.33c-2.44-0.02-3.36,0.77-3.88,2.75c-0.36,1.36,0.26,2.67,1.85,3.33
		c4.99,2.09,10,4.12,15.03,6.11c0.86,0.34,2.03,0.74,2.73,0.41c1.12-0.53,2.25-1.44,2.38-2.92c0.12-1.31-0.81-2.76-2.13-3.31
		c-3.97-1.64-7.95-3.25-11.94-4.85C148.19,156.23,146.62,155.68,145.68,155.33z M150.58,139.59c0.16-1.67-0.96-2.54-2.23-3.04
		c-5.1-2.03-10.26-3.9-15.36-5.92c-1.26-0.5-2.1-0.25-3.09,0.6c-2.02,1.74-1.8,4.17,0.64,5.32c1.51,0.71,3.05,1.38,4.61,1.96
		c3.79,1.42,7.58,2.86,11.43,4.12C148.66,143.31,150.55,141.74,150.58,139.59z M169.79,145.35c-0.5,0.14-1.02,0.24-1.49,0.44
		c-0.99,0.4-1.88,0.95-1.91,2.18c-0.04,1.55,0.67,2.82,1.86,3.28c5.33,2.09,10.65,4.18,15.99,6.24c0.33,0.13,0.88,0.23,1.09,0.06
		c0.95-0.78,1.92-1.57,2.65-2.54c0.34-0.45,0.36-1.35,0.17-1.94c-0.48-1.53-1.76-2.3-3.21-2.79c-4.4-1.49-8.8-2.98-13.2-4.46
		C171.12,145.63,170.45,145.51,169.79,145.35z M178.73,131.32c1.88,0.07,3.93-1.23,4.37-2.53c0.43-1.26-0.35-2.25-1.15-3.06
		c-0.44-0.45-1.14-0.72-1.77-0.88c-4.94-1.27-9.91-2.46-14.85-3.75c-1.17-0.3-2.1-0.19-3.07,0.53c-0.89,0.67-1.8,1.28-1.5,2.56
		c0.3,1.3,0.77,2.52,2.27,2.94c2.67,0.77,5.31,1.61,7.99,2.32C173.76,130.2,176.55,130.8,178.73,131.32z"/>
	<path class="st0" d="M149.86,208.62c-41.53,17.25-96.18,6.11-126.63-37.82C-8.53,125,1.15,65.74,39.03,31.76
		C81.23-6.1,136.95-0.6,169.68,22.54c-4.51-0.63-8.88-1.3-13.26-1.84c-3.27-0.4-6.56-0.7-9.85-0.91c-4.25-0.27-8.51-0.56-12.77-0.57
		c-4.5,0-9,0.29-13.49,0.53c-2.5,0.13-5,0.35-7.48,0.67c-4.44,0.58-8.88,1.19-13.29,1.95c-8.5,1.46-16.86,3.5-24.88,6.74
		c-6.18,2.5-12.3,5.15-17.76,9.04c-5.39,3.83-8.04,9.17-7.42,15.76c0.7,7.39,3.32,14.13,7.9,20.05c3.95,5.11,9.04,8.96,14.16,12.78
		c10.1,7.54,21.31,12.91,33.23,16.85c12.53,4.14,25.09,8.19,37.62,12.33c1.34,0.44,2.63,1.12,3.86,1.84
		c1.18,0.7,1.61,1.83,1.25,2.95c-0.38,1.17-1.29,1.93-2.49,1.91c-1.6-0.03-3.27-0.1-4.79-0.53c-6.3-1.81-12.54-3.8-18.83-5.65
		c-11.75-3.46-23.22-7.65-34.21-13.06c-8.68-4.27-17-9.15-24.58-15.19c-8.56-6.82-14.84-15.31-18.01-25.9
		c-0.55-1.82-0.94-3.69-1.43-5.53c-0.48-1.79-1.22-2.24-3.05-1.88c-6.72,1.31-12.18,4.76-16.69,9.82
		c-5.67,6.36-8.93,13.87-10.44,22.18c-0.85,4.64-1.06,9.31-0.14,13.98c0.19,0.98,0.39,1.93,1.48,2.24c1.17,0.34,2-0.3,2.67-1.17
		c2.04-2.66,4.74-4.21,8.02-4.73c2.48-0.39,4.92,0.02,7.33,0.6c7.67,1.86,15.32,3.77,22.99,5.64c1.76,0.43,2.83,1.72,3.9,2.99
		c1.79,2.13,3.28,4.59,5.34,6.42c3.81,3.38,7.83,6.53,11.94,9.55c8.6,6.32,17.32,12.49,25.99,18.74c9.81,7.07,17.8,15.9,24.76,25.73
		c5.68,8.02,10.71,16.43,15.04,25.25c2.39,4.87,4.6,9.83,6.88,14.75C149.42,207.44,149.63,208.04,149.86,208.62z"/>
	<path class="st0" d="M113.54,47.75c1.03,1.2,2.14,2.33,3.06,3.6c2.11,2.95,3.27,6.1,2.95,9.91c-0.2,2.47-0.28,4.89-1.31,7.16
		c-2.63,5.79-7.12,9.55-13.28,10.85c-9.49,2-18.72-3.39-21.58-12.59c-2.76-8.88,1.24-17.1,9.02-21.6c3.33-1.93,7.01-2.48,10.72-3
		c6.5-0.92,13.03-1.33,19.58-1.01c5.3,0.26,10.58,0.82,15.86,1.3c2.18,0.2,4.34,0.55,6.52,0.81c2.81,0.34,4.25,2.73,2.95,4.92
		c-0.74,1.24-1.89,1.69-3.27,1.54c-5.59-0.61-11.16-1.4-16.76-1.82c-4.76-0.36-9.56-0.32-14.34-0.45
		C113.62,47.49,113.58,47.62,113.54,47.75z M112.94,61.27c0.23-6.91-4.83-11.62-11.08-11.85c-8.03-0.3-12.3,5.1-12.35,11.5
		c-0.06,7.17,4.53,11.95,11.43,11.93C108.41,72.82,113.1,67.65,112.94,61.27z"/>
	<path class="st0" d="M156.43,179.81c1.37,0.5,2.75,0.98,4.12,1.5c3.94,1.51,7.88,3.02,11.8,4.56c2.1,0.82,2.8,1.72,2.73,3.3
		c-0.09,2-2.2,3.77-4.07,3.15c-3.77-1.25-7.48-2.68-11.19-4.09c-1.71-0.65-3.4-1.35-5.06-2.13c-1.65-0.78-2.16-1.78-1.72-3.23
		C153.5,181.37,154.52,179.84,156.43,179.81z"/>
	<path class="st0" d="M145.68,155.33c0.94,0.35,2.51,0.9,4.05,1.52c3.99,1.6,7.97,3.21,11.94,4.85c1.32,0.54,2.25,1.99,2.13,3.31
		c-0.13,1.49-1.26,2.4-2.38,2.92c-0.7,0.33-1.87-0.07-2.73-0.41c-5.03-1.99-10.04-4.02-15.03-6.11c-1.58-0.66-2.21-1.98-1.85-3.33
		C142.32,156.1,143.24,155.31,145.68,155.33z"/>
	<path class="st0" d="M150.58,139.59c-0.03,2.15-1.92,3.72-4,3.04c-3.85-1.26-7.64-2.7-11.43-4.12c-1.56-0.58-3.1-1.25-4.61-1.96
		c-2.44-1.15-2.66-3.57-0.64-5.32c0.99-0.85,1.83-1.09,3.09-0.6c5.1,2.02,10.26,3.89,15.36,5.92
		C149.61,137.05,150.74,137.92,150.58,139.59z"/>
	<path class="st0" d="M169.79,145.35c0.66,0.16,1.32,0.27,1.96,0.49c4.4,1.47,8.8,2.96,13.2,4.46c1.45,0.49,2.72,1.26,3.21,2.79
		c0.19,0.59,0.17,1.49-0.17,1.94c-0.73,0.96-1.7,1.76-2.65,2.54c-0.21,0.17-0.76,0.07-1.09-0.06c-5.34-2.07-10.67-4.15-15.99-6.24
		c-1.19-0.47-1.9-1.73-1.86-3.28c0.03-1.23,0.91-1.78,1.91-2.18C168.78,145.6,169.29,145.5,169.79,145.35z"/>
	<path class="st0" d="M178.73,131.32c-2.19-0.52-4.97-1.12-7.72-1.85c-2.68-0.71-5.32-1.56-7.99-2.32
		c-1.49-0.43-1.97-1.64-2.27-2.94c-0.3-1.28,0.61-1.9,1.5-2.56c0.97-0.73,1.9-0.84,3.07-0.53c4.94,1.29,9.9,2.48,14.85,3.75
		c0.63,0.16,1.33,0.43,1.77,0.88c0.8,0.81,1.58,1.8,1.15,3.06C182.67,130.09,180.61,131.39,178.73,131.32z"/>
	<path d="M112.94,61.27c0.17,6.38-4.52,11.55-12,11.58c-6.91,0.03-11.49-4.75-11.43-11.93c0.05-6.4,4.33-11.8,12.35-11.5
		C108.1,49.65,113.17,54.36,112.94,61.27z"/>
</g>
</svg>
